# xmcd
#
# Track frame offsets:
#	150
#	17980
#	35337
#	50295
#	68327
#	86412
#	101957
#	119137
#	136780
#	154595
#	171897
#	186855
#	204887
#	222915
#	238437
#	255607
#
# Disc length: 3643 seconds
#
# Revision: 1
# Processed by: cddbd v1.5.1PL2 Copyright (c) Steve Scherf et al.
# Submitted via: audiograbber 1.83.01
#
DISCID=de0e3910
DTITLE=Various Artist - Sc2129
DYEAR=1900
DGENRE=Country
TTITLE0=Byrd, Tracy - Don't Take Her She's All I Got
TTITLE1=Lawrence, Tracy - Better Man Better Off
TTITLE2=Walker, Clay - Rumor Has It
TTITLE3=Raye, Collin - On The Verge
TTITLE4=Travis, Randy - Price To Pay
TTITLE5=Br5-49 - Even If It's Wrong
TTITLE6=Jackson, Alan - Must've Had A Ball
TTITLE7=Tippin, Aaron - That's What Happens When I Hold You
TTITLE8=Byrd, Tracy - Don't Take Her She's All I Got (Vocals)
TTITLE9=Lawrence, Tracy - Better Man Better Off (Vocals)
TTITLE10=Walker, Clay - Rumor Has It (Vocals)
TTITLE11=Raye, Collin - On The Verge (Vocals)
TTITLE12=Travis, Randy - Price To Pay (Vocals)
TTITLE13=Br5-49 - Even If It's Wrong (Vocals)
TTITLE14=Jackson, Alan - Must've Had A Ball (Vocals)
TTITLE15=Tippin, Aaron - That's What Happens When I Hold You (Vocals)
EXTD=
EXTT0=
EXTT1=
EXTT2=
EXTT3=
EXTT4=
EXTT5=
EXTT6=
EXTT7=
EXTT8=
EXTT9=
EXTT10=
EXTT11=
EXTT12=
EXTT13=
EXTT14=
EXTT15=
PLAYORDER=
